<svg xmlns="http://www.w3.org/2000/svg" viewBox="0 0 512 512">
    <circle cx="256" cy="256" r="256" style="fill:#262526"/>
    <path d="M263.08,344.83c-7.75-.12-13.09,3.32-16.61,10.05l-20.63,39.5c-3.43,6.71-7.83,10.46-16.16,10l-38.35-.08c-5.34.15-7.27-1.27-7.12-6.89l0-42.51c-.08-4.45,1.71-8,3.62-11.66l47.05-90c4.59-8.81,2.83-11.88-7-12.05l-35.24.05c-5.88.2-8.64-.77-8.47-7.71,0,0,.41-39.41,0-59.1-.12-6.12,2.06-7.4,7.68-7.35l75.7.24c8.67.11,14.35-3.35,18.19-10.87,6.79-13.22,13.86-26.27,20.65-39.49,3.3-6.4,7.73-9.73,15.51-9.35l38.37.09c4.83-.07,7.69.51,7.52,6.59l-.05,43.54c0,4.09-1.86,7.25-3.62,10.62l-47,90c-4.86,9.3-3.1,12.44,7.23,12.55l35.25-.09c6-.21,8.47,1,8.27,7.81l0,58.06c.13,6.29-1.45,8.48-8,8.25Z" style="fill:#fff;fill-rule:evenodd"/>
</svg>