<svg xmlns="http://www.w3.org/2000/svg" viewBox="0 0 512 512">
    <circle cx="256" cy="256" r="256" style="fill:#fff"/>
    <path d="M415.64,202.82c-9-16.84-9.25-22.45-9.27-41.87,0-11.87-2.5-23.76-4.26-35.61-1.27-8.45-7.06-11.09-14.31-8.16-16.8,6.75-33.25,14.46-50,21.3-4.34,1.78-9.72,3.34-14,2.37a245,245,0,0,0-109.47,0c-4.26,1-9.6-.76-14-2.47-17.48-6.86-34.71-14.39-52.18-21.31-6.49-2.54-10.22.84-12.18,7.21a98.21,98.21,0,0,0-2.29,51.92c1,4.21,0,10.51-2.69,13.61-34.85,40.21-19.7,123,9.46,149.41,19.89,18.07,43.3,27.43,69.29,31.56,4,.63,7.94,1.37,10.71,1.86-4,9.84-7.7,19.34-11.85,28.63-1.13,2.5-3.26,5.49-5.61,6.33-24.58,8.9-48,5.75-64.67-18.24-6.67-9.6-15.86-17.9-25.27-25-7.43-5.6-17-6.57-28.22-1.16,4.39,4.52,8,7.9,11.13,11.64,8.53,10.13,20,19.12,24.64,30.88,10.5,26.55,30.14,36,56.15,37.11,9.91.41,19.82.06,30.6.06,0,17.72.39,36.57-.18,55.44a36,36,0,0,1-1.86,8.63,256.88,256.88,0,0,0,46.41,5h7.91a255.5,255.5,0,0,0,71.9-11.29,42.61,42.61,0,0,1-1-9.54c-.22-21.37-.29-42.74,0-64.12.29-19.22-.67-37.93-15-53.27,13.51-3.24,26.38-5.49,38.7-9.42,42.43-13.55,65.43-43.18,71.16-87.14C428.79,251.37,428.3,226.44,415.64,202.82Z" style="fill:#262526;fill-rule:evenodd"/>
    <path d="M116.11,370.64c-1.43,2.16-2.89,3.66-2.62,4.13a16.76,16.76,0,0,0,4.09,4.52c.29.21,2.87-1.82,2.82-1.94C119.34,375.34,118,373.52,116.11,370.64Zm10.23,14.81c-1,1.15-3.07,3.05-2.84,3.4a22.11,22.11,0,0,0,4.91,5.08c.34.22,2.1-1.44,4.23-3Zm18.15,20.32a24.07,24.07,0,0,0-5.59-5.44c-.3-.22-3.37,2.46-3.21,2.74,1.23,2.38,3,4.53,5.51,8.05C143,408.19,144.84,406.23,144.49,405.77Zm12.42,5.73c-.85-.32-2.66,2-4,3.16,1.74,1.67,3.48,3.31,5.88,5.6,2.06-2,3.33-3.27,4.64-4.5C161.29,414.27,159.25,412.34,156.91,411.5ZM179.73,415c-2,.13-3.95,1.89-5.89,3,1.66,1.41,3.23,3.76,5.07,4s4.06-1.55,6.12-2.45c0-.66,0-1.31,0-2C183.29,416.58,181.45,414.82,179.73,415Zm25-.75c-1.86-.66-3.95-2.25-5.5-1.8-2,.57-3.73,2.68-5.59,4.17,1.7,1,3.54,3.09,5.13,2.91,2.15-.17,4.14-2.09,6.21-3.24C204.86,415.56,204.78,414.9,204.7,414.21Z" style="fill:#fff;fill-rule:evenodd"/>
</svg>