<svg xmlns="http://www.w3.org/2000/svg" viewBox="0 0 512 512">
    <circle cx="256" cy="256" r="256" style="fill:#fff"/>
    <path d="M169.18,400.82c-15.75-.36-31.49-.27-47.26,0-4.68.09-6.61-.82-6.6-6.12q.3-90.57,0-181.14c0-5,1.31-6.5,6.37-6.42q24,.5,48,0c5.23-.09,6.26,1.78,6.22,6.57-.21,30.07-.1,60.13-.1,90.19s-.13,60.14.14,90.21C176,399.42,174.55,400.93,169.18,400.82Z" style="fill:#262526;fill-rule:evenodd"/>
    <path d="M145.59,181a34.94,34.94,0,1,1,34.84-35.13A34.8,34.8,0,0,1,145.59,181Z" style="fill:#262526;fill-rule:evenodd"/>
    <path d="M394.09,400.83c-15-.4-30.09-.41-45.09,0-6.32.17-8.53-1.26-8.43-8.11.42-30.07.18-60.13.17-90.21,0-7.88-.16-15.74-1.94-23.49-3.15-13.83-11.36-21.83-23.78-23.18-17.46-1.87-30,4-36.1,17.09-4.23,9.07-5.09,18.86-5.16,28.65-.22,30.54-.36,61.07-.13,91.62,0,5.82-1.27,7.81-7.41,7.65-15.74-.45-31.49-.29-47.25-.09-4.34.07-5.72-1.25-5.71-5.66q.19-91.27,0-182.54c0-4,1.08-5.47,5.25-5.42,16,.18,32,.16,47.95,0,3.75,0,5.07,1.23,4.93,5-.21,6.53-.06,13.09-.06,21.86,11.51-17.71,26.07-27.34,44.55-30.32,15.51-2.51,31-1.57,45.82,4.09,21.36,8.13,31.27,25.3,35.91,46.49,2.78,12.66,3.36,25.51,3.39,38.42.07,33.65-.09,67.3.15,100.93C401.19,399.08,399.86,401,394.09,400.83Z" style="fill:#262526;fill-rule:evenodd"/>
</svg>