<svg xmlns="http://www.w3.org/2000/svg" viewBox="0 0 66.21 66.14">
    <style>
        path { fill: #050505; }
        @media (prefers-color-scheme: dark) {
            path { fill: #fafafa; }
        }
    </style>
    <path fill-rule="evenodd" d="M9.09 0h48a9.12 9.12 0 0 1 9.09 9.09v.14c-.17 5.28-3.63 4.32-7.47 2.47-3.18-1.5-6.89-3.11-14.84-3.11-11.87 0-22.74 4.57-22.74 14.73 0 9 8.45 13.51 18.12 18.4 9 4.57 15.29 8.39 15.29 15 0 6-5.53 9-12.64 9-15.8 0-18.24-10.18-19.79-16.58-.76-3.14-1.08-3-1.08 0 0 9.17-.1 13.75-.31 17H9.09A9.12 9.12 0 0 1 0 57.12v-48A9.12 9.12 0 0 1 9.09 0zm57.12 30.1c0-8.39-10.1-19.57-19.54-19.57-6.52 0-11.18 3.1-11.18 8.23 0 6.5 6.21 9.14 17.61 15.21 5.31 2.79 10 5.37 13.11 8.58z"/>
</svg>