<svg xmlns="http://www.w3.org/2000/svg" viewBox="0 0 512 512">
    <circle cx="256" cy="256" r="256" style="fill:#262526"/>
    <path d="M211.31,267.12c-37,27.53-73.62,54.87-110.59,82.43-1.16-3-.13-3.54-1.13-6.14V169.12c.55-1.64,1.09-3.27,1.81-5.41C138.79,199,173.88,231.87,211.31,267.12Z" style="fill:#fff;fill-rule:evenodd"/>
    <path d="M396.92,151.41l-17.69,16.75q-15.12,14.27-30.3,28.52-14.34,13.49-28.7,27c-14,13.15-27.88,26.39-41.87,39.49-11.5,10.71-27.25,12.73-40.46,3.47-5.73-4-10.61-9.3-15.75-14.13q-29.17-27.36-58.3-54.82c-9.91-9.34-19.76-18.76-29.68-28.11-6.38-6-12.85-12-19.29-18,0-.33.1-.67.12-1,3.26-.32,6.53-.92,9.77-.92q85.25-.08,170.49,0,46.21,0,92.36.05a81.27,81.27,0,0,1,9.23,1C396.87,150.84,396.89,151.12,396.92,151.41Z" style="fill:#fff;fill-rule:evenodd"/>
    <path d="M397.84,361.17c-3.15.42-6.32,1.24-9.48,1.24q-132.44.1-264.82,0c-3.17,0-6.36-.78-9.55-1.19,0-.29-.12-.57-.17-.84q54.7-40.8,109.51-81.64c2.46,1.63,4.8,3.35,7.29,4.81,18,10.48,39.28,9.21,55.62-3.41,1.48-1.15,2.36-1.35,4-.14,13.23,10,26.57,19.91,39.9,29.83,11.61,8.63,23.23,17.2,34.79,25.84q16.46,12.3,32.88,24.63C397.81,360.6,397.82,360.87,397.84,361.17Z" style="fill:#fff;fill-rule:evenodd"/>
    <path d="M412.21,338.8c0,4.46,1,6.46-1.34,10.61-37.76-28.15-74.36-55.45-110.38-82.28,37.3-35.14,72.36-68,109.79-103.31a21.9,21.9,0,0,1,1.37,3.77,36.12,36.12,0,0,1,.51,5.94Q412.2,256.18,412.21,338.8Z" style="fill:#fff;fill-rule:evenodd"/>
</svg>