<svg xmlns="http://www.w3.org/2000/svg" viewBox="0 0 512 512">
    <circle cx="256" cy="256" r="256" style="fill:#fff"/>
    <path d="M404.3,189c0-26.64-20.63-40.75-32.39-40.75-5.91,0-230-.28-231,0-6.48,0-18.82,6.88-25,15.46a41.23,41.23,0,0,0-8.19,24.78c.11,45.19,0,90.37.05,135.57,0,22.45,17.25,39.7,39.73,39.71q108.62.08,217.27,0c22.46,0,39.52-17.18,39.54-39.78Q404.35,256.47,404.3,189ZM149,159.22q107.19-.18,214.38,0c8.93,0,17,2.83,23.23,10.63-20,20.08-39.6,39.81-59.26,59.49q-31.24,31.14-62.58,62.2c-4.92,4.88-6.8,5-11.33.49Q191.76,230.54,130.2,169a24.35,24.35,0,0,1-1.65-2C134.24,160.93,141.46,159.22,149,159.22ZM118.61,321.57q-.14-65.67,0-131.3c0-4.39,1.21-8.77,2-13.82,26.5,27,52.31,53.17,77.7,79-25.15,25.21-51.37,51.48-78.16,78.27C119.6,329.6,118.61,325.58,118.61,321.57Zm244.47,31.26q-106.94.2-213.79,0c-8,0-15.56-2.11-21.54-8.11,27-27.23,53.68-54.13,81.79-82.49,4.37,4.95,8.56,10.08,13.19,14.84,7.65,7.94,15.55,15.7,23.41,23.48,8,7.88,17.6,8,25.56.06,11.75-11.7,23.25-23.61,34.55-35.1l78.28,79.1C379.77,350.36,371.76,352.83,363.09,352.83Zm28.43-21c-24.8-25-49.6-50.11-73.94-74.73,24.32-24.42,49.45-49.64,74.67-74.92C394.3,188.75,393.71,327.35,391.52,331.8Z" style="fill:#262526"/>
</svg>