<svg xmlns="http://www.w3.org/2000/svg" viewBox="0 0 512 512">
    <circle cx="256" cy="256" r="256" style="fill:#262526"/>
    <path d="M369.11,395.26c.09,6.27-2,7.63-7.85,7.61-37.32-.25-74.65-.13-112-.13-36.83,0-73.65-.12-110.45.13-5.86,0-7.92-1.36-7.85-7.61q.5-44.87,0-89.74c-.06-5.86,1.78-7.31,7.42-7.27,18.79.12,18.79-.11,18.79,18.76,0,17.38.18,34.78-.11,52.15-.09,5.37.88,7.66,7,7.64q85.93-.35,171.82,0c6.14,0,7.09-2.3,7-7.64-.25-21.18.11-42.43-.25-63.64-.09-5.9,1.82-7.31,7.43-7.24C369,298.36,369,298.15,369,317,369,343.09,368.74,369.17,369.11,395.26Z" style="fill:#fff;fill-rule:evenodd"/>
    <path d="M320.27,297.26s-2.53,10.43-3.34,15.71c-.5,3.34-1.91,4.48-5.78,3.46l-74.93-15.59c-14.49-3-28.95-6.08-43.44-9-4.13-.8-7-1.64-5.13-7.25,2.13-6.18,4.67-16,4.67-16,1-6,4-3.5,56,7.84,34.63,7.56,32.77,7,67.49,14C320.56,291.28,321.69,292.64,320.27,297.26Z" style="fill:#fff;fill-rule:evenodd"/>
    <path d="M332.45,265.34c-3.18,6.72-3.11,6.51-6.18,13.21s-6.59,3.92-8.57,3q-44.1-20.24-88.06-40.73c-6.93-3.22-13.79-6.61-20.81-9.59-3.77-1.58-5.32-3.16-3-7.32,3.34-5.95,7.82-14.25,7.82-14.25,2.5-4.5,5.67-2.83,19.51,3.66,31.57,14.82,63.35,29.21,94.94,44C330.29,258.36,334.67,259.83,332.45,265.34Z" style="fill:#fff;fill-rule:evenodd"/>
    <path d="M377.51,216.44c-4.5,3.36-9.23,6.44-13.49,10.05-3.22,2.73-4.95,1.83-7.15-1.16q-36.29-48.77-72.81-97.45c-2.33-3.11-2.55-4.83.91-7.1,4.68-3,9.13-6.49,13.55-9.95,2.52-2,4.1-2.77,6.57.55,24.44,33,49.09,65.82,73.66,98.71A4.68,4.68,0,0,1,377.51,216.44Z" style="fill:#fff;fill-rule:evenodd"/>
    <path d="M351.44,239l-8.63,9.81c-4,4.6-9.79,1.14-14.7-2.89-27.18-22.45-59.13-49.09-86.46-71.38-4.23-3.43-4.61-5.58-.79-9.37,3.61-3.57,6.6-7.79,9.93-11.64,3.29-2.55,6.51-.65,7.88.45,30.69,25.46,61.31,51,92.17,76.24C354.88,233.52,354.89,235.63,351.44,239Z" style="fill:#fff;fill-rule:evenodd"/>
    <path d="M309.81,350.26s-6.57.28-12.91.28c-35.47,0-71-.08-106.43.13-5.37,0-7.25-2.2-7.25-6.9-.16-3.53-.23-9.21,0-13.21.1-2.08.08-3.77,1.52-5,2.85-1.92,17.73-1.05,17.73-1.05s32.17,0,48.24,0c19.91,0,39.82.14,59.73-.08,4.66-.05,6.47.56,6.47,6.1v12.41C316.88,349.31,314.19,350.26,309.81,350.26Z" style="fill:#fff;fill-rule:evenodd"/>
</svg>